<svg xmlns="http://www.w3.org/2000/svg" width="980" height="500" viewBox="0 0 980 500">
<rect width="100%" height="100%" fill="white"/>
<text x="245.0" y="24" text-anchor="middle" font-size="18" font-family="Arial">Left eye target locations</text>
<rect x="58" y="48" width="374" height="374" fill="white" stroke="#555"/>
<line x1="58.0" y1="422.0" x2="432.0" y2="422.0" stroke="#d9d9d9" stroke-width="1"/>
<line x1="58.0" y1="422.0" x2="58.0" y2="48.0" stroke="#d9d9d9" stroke-width="1"/>
<line x1="58.0" y1="384.6" x2="432.0" y2="384.6" stroke="#d9d9d9" stroke-width="1"/>
<line x1="95.4" y1="422.0" x2="95.4" y2="48.0" stroke="#d9d9d9" stroke-width="1"/>
<line x1="58.0" y1="347.2" x2="432.0" y2="347.2" stroke="#d9d9d9" stroke-width="1"/>
<line x1="132.8" y1="422.0" x2="132.8" y2="48.0" stroke="#d9d9d9" stroke-width="1"/>
<line x1="58.0" y1="309.8" x2="432.0" y2="309.8" stroke="#d9d9d9" stroke-width="1"/>
<line x1="170.2" y1="422.0" x2="170.2" y2="48.0" stroke="#d9d9d9" stroke-width="1"/>
<line x1="58.0" y1="272.4" x2="432.0" y2="272.4" stroke="#d9d9d9" stroke-width="1"/>
<line x1="207.6" y1="422.0" x2="207.6" y2="48.0" stroke="#d9d9d9" stroke-width="1"/>
<line x1="58.0" y1="235.0" x2="432.0" y2="235.0" stroke="#111" stroke-width="1.6"/>
<line x1="245.0" y1="422.0" x2="245.0" y2="48.0" stroke="#111" stroke-width="1.6"/>
<line x1="58.0" y1="197.6" x2="432.0" y2="197.6" stroke="#d9d9d9" stroke-width="1"/>
<line x1="282.4" y1="422.0" x2="282.4" y2="48.0" stroke="#d9d9d9" stroke-width="1"/>
<line x1="58.0" y1="160.2" x2="432.0" y2="160.2" stroke="#d9d9d9" stroke-width="1"/>
<line x1="319.8" y1="422.0" x2="319.8" y2="48.0" stroke="#d9d9d9" stroke-width="1"/>
<line x1="58.0" y1="122.8" x2="432.0" y2="122.8" stroke="#d9d9d9" stroke-width="1"/>
<line x1="357.2" y1="422.0" x2="357.2" y2="48.0" stroke="#d9d9d9" stroke-width="1"/>
<line x1="58.0" y1="85.4" x2="432.0" y2="85.4" stroke="#d9d9d9" stroke-width="1"/>
<line x1="394.6" y1="422.0" x2="394.6" y2="48.0" stroke="#d9d9d9" stroke-width="1"/>
<line x1="58.0" y1="48.0" x2="432.0" y2="48.0" stroke="#d9d9d9" stroke-width="1"/>
<line x1="432.0" y1="422.0" x2="432.0" y2="48.0" stroke="#d9d9d9" stroke-width="1"/>
<circle cx="188.9" cy="104.1" r="5.2" fill="white" stroke="#d62728" stroke-width="2"/>
<circle cx="226.3" cy="104.1" r="5.2" fill="white" stroke="#d62728" stroke-width="2"/>
<circle cx="263.7" cy="104.1" r="5.2" fill="white" stroke="#d62728" stroke-width="2"/>
<circle cx="301.1" cy="104.1" r="5.2" fill="white" stroke="#d62728" stroke-width="2"/>
<circle cx="151.5" cy="141.5" r="5.2" fill="white" stroke="#d62728" stroke-width="2"/>
<circle cx="188.9" cy="141.5" r="5.2" fill="white" stroke="#d62728" stroke-width="2"/>
<circle cx="226.3" cy="141.5" r="5.2" fill="white" stroke="#d62728" stroke-width="2"/>
<circle cx="263.7" cy="141.5" r="5.2" fill="white" stroke="#d62728" stroke-width="2"/>
<circle cx="301.1" cy="141.5" r="5.2" fill="white" stroke="#d62728" stroke-width="2"/>
<circle cx="338.5" cy="141.5" r="5.2" fill="white" stroke="#d62728" stroke-width="2"/>
<circle cx="114.1" cy="178.9" r="5.2" fill="white" stroke="#d62728" stroke-width="2"/>
<circle cx="151.5" cy="178.9" r="5.2" fill="white" stroke="#d62728" stroke-width="2"/>
<circle cx="188.9" cy="178.9" r="5.2" fill="white" stroke="#d62728" stroke-width="2"/>
<circle cx="226.3" cy="178.9" r="5.2" fill="white" stroke="#d62728" stroke-width="2"/>
<circle cx="263.7" cy="178.9" r="5.2" fill="white" stroke="#d62728" stroke-width="2"/>
<circle cx="301.1" cy="178.9" r="5.2" fill="white" stroke="#d62728" stroke-width="2"/>
<circle cx="338.5" cy="178.9" r="5.2" fill="white" stroke="#d62728" stroke-width="2"/>
<circle cx="375.9" cy="178.9" r="5.2" fill="white" stroke="#d62728" stroke-width="2"/>
<circle cx="114.1" cy="216.3" r="5.2" fill="white" stroke="#d62728" stroke-width="2"/>
<circle cx="151.5" cy="216.3" r="5.2" fill="white" stroke="#d62728" stroke-width="2"/>
<circle cx="188.9" cy="216.3" r="5.2" fill="white" stroke="#d62728" stroke-width="2"/>
<circle cx="226.3" cy="216.3" r="5.2" fill="white" stroke="#d62728" stroke-width="2"/>
<circle cx="263.7" cy="216.3" r="5.2" fill="white" stroke="#d62728" stroke-width="2"/>
<circle cx="301.1" cy="216.3" r="5.2" fill="white" stroke="#d62728" stroke-width="2"/>
<circle cx="338.5" cy="216.3" r="5.2" fill="white" stroke="#d62728" stroke-width="2"/>
<circle cx="375.9" cy="216.3" r="5.2" fill="white" stroke="#d62728" stroke-width="2"/>
<circle cx="413.3" cy="216.3" r="6.0" fill="white" stroke="#ff7f0e" stroke-width="2"/>
<circle cx="114.1" cy="253.7" r="5.2" fill="white" stroke="#d62728" stroke-width="2"/>
<circle cx="151.5" cy="253.7" r="5.2" fill="white" stroke="#d62728" stroke-width="2"/>
<circle cx="188.9" cy="253.7" r="5.2" fill="white" stroke="#d62728" stroke-width="2"/>
<circle cx="226.3" cy="253.7" r="5.2" fill="white" stroke="#d62728" stroke-width="2"/>
<circle cx="263.7" cy="253.7" r="5.2" fill="white" stroke="#d62728" stroke-width="2"/>
<circle cx="301.1" cy="253.7" r="5.2" fill="white" stroke="#d62728" stroke-width="2"/>
<circle cx="338.5" cy="253.7" r="5.2" fill="white" stroke="#d62728" stroke-width="2"/>
<circle cx="375.9" cy="253.7" r="5.2" fill="white" stroke="#d62728" stroke-width="2"/>
<circle cx="413.3" cy="253.7" r="6.0" fill="white" stroke="#ff7f0e" stroke-width="2"/>
<circle cx="114.1" cy="291.1" r="5.2" fill="white" stroke="#d62728" stroke-width="2"/>
<circle cx="151.5" cy="291.1" r="5.2" fill="white" stroke="#d62728" stroke-width="2"/>
<circle cx="188.9" cy="291.1" r="5.2" fill="white" stroke="#d62728" stroke-width="2"/>
<circle cx="226.3" cy="291.1" r="5.2" fill="white" stroke="#d62728" stroke-width="2"/>
<circle cx="263.7" cy="291.1" r="5.2" fill="white" stroke="#d62728" stroke-width="2"/>
<circle cx="301.1" cy="291.1" r="5.2" fill="white" stroke="#d62728" stroke-width="2"/>
<circle cx="338.5" cy="291.1" r="5.2" fill="white" stroke="#d62728" stroke-width="2"/>
<circle cx="375.9" cy="291.1" r="5.2" fill="white" stroke="#d62728" stroke-width="2"/>
<circle cx="151.5" cy="328.5" r="5.2" fill="white" stroke="#d62728" stroke-width="2"/>
<circle cx="188.9" cy="328.5" r="5.2" fill="white" stroke="#d62728" stroke-width="2"/>
<circle cx="226.3" cy="328.5" r="5.2" fill="white" stroke="#d62728" stroke-width="2"/>
<circle cx="263.7" cy="328.5" r="5.2" fill="white" stroke="#d62728" stroke-width="2"/>
<circle cx="301.1" cy="328.5" r="5.2" fill="white" stroke="#d62728" stroke-width="2"/>
<circle cx="338.5" cy="328.5" r="5.2" fill="white" stroke="#d62728" stroke-width="2"/>
<circle cx="188.9" cy="365.9" r="5.2" fill="white" stroke="#d62728" stroke-width="2"/>
<circle cx="226.3" cy="365.9" r="5.2" fill="white" stroke="#d62728" stroke-width="2"/>
<circle cx="263.7" cy="365.9" r="5.2" fill="white" stroke="#d62728" stroke-width="2"/>
<circle cx="301.1" cy="365.9" r="5.2" fill="white" stroke="#d62728" stroke-width="2"/>
<circle cx="269.9" cy="210.1" r="3.0" fill="#1f77b4" fill-opacity="0.75"/>
<circle cx="220.1" cy="210.1" r="3.0" fill="#1f77b4" fill-opacity="0.75"/>
<circle cx="220.1" cy="259.9" r="3.0" fill="#1f77b4" fill-opacity="0.75"/>
<circle cx="269.9" cy="259.9" r="3.0" fill="#1f77b4" fill-opacity="0.75"/>
<circle cx="301.1" cy="178.9" r="3.0" fill="#1f77b4" fill-opacity="0.75"/>
<circle cx="188.9" cy="178.9" r="3.0" fill="#1f77b4" fill-opacity="0.75"/>
<circle cx="188.9" cy="291.1" r="3.0" fill="#1f77b4" fill-opacity="0.75"/>
<circle cx="301.1" cy="291.1" r="3.0" fill="#1f77b4" fill-opacity="0.75"/>
<circle cx="266.3" cy="118.8" r="3.0" fill="#1f77b4" fill-opacity="0.75"/>
<circle cx="223.7" cy="118.8" r="3.0" fill="#1f77b4" fill-opacity="0.75"/>
<circle cx="223.7" cy="351.2" r="3.0" fill="#1f77b4" fill-opacity="0.75"/>
<circle cx="266.3" cy="351.2" r="3.0" fill="#1f77b4" fill-opacity="0.75"/>
<circle cx="361.2" cy="213.7" r="3.0" fill="#1f77b4" fill-opacity="0.75"/>
<circle cx="128.8" cy="213.7" r="3.0" fill="#1f77b4" fill-opacity="0.75"/>
<circle cx="128.8" cy="256.3" r="3.0" fill="#1f77b4" fill-opacity="0.75"/>
<circle cx="361.2" cy="256.3" r="3.0" fill="#1f77b4" fill-opacity="0.75"/>
<circle cx="363.4" cy="116.6" r="3.0" fill="#1f77b4" fill-opacity="0.75"/>
<circle cx="126.6" cy="116.6" r="3.0" fill="#1f77b4" fill-opacity="0.75"/>
<circle cx="126.6" cy="353.4" r="3.0" fill="#1f77b4" fill-opacity="0.75"/>
<circle cx="363.4" cy="353.4" r="3.0" fill="#1f77b4" fill-opacity="0.75"/>
<circle cx="302.8" cy="85.4" r="3.0" fill="#1f77b4" fill-opacity="0.75"/>
<circle cx="187.2" cy="85.4" r="3.0" fill="#1f77b4" fill-opacity="0.75"/>
<circle cx="187.2" cy="384.6" r="3.0" fill="#1f77b4" fill-opacity="0.75"/>
<circle cx="302.8" cy="384.6" r="3.0" fill="#1f77b4" fill-opacity="0.75"/>
<circle cx="394.6" cy="177.2" r="3.0" fill="#1f77b4" fill-opacity="0.75"/>
<circle cx="95.4" cy="177.2" r="3.0" fill="#1f77b4" fill-opacity="0.75"/>
<circle cx="95.4" cy="292.8" r="3.0" fill="#1f77b4" fill-opacity="0.75"/>
<circle cx="394.6" cy="292.8" r="3.0" fill="#1f77b4" fill-opacity="0.75"/>
<text x="58" y="453" font-size="12" font-family="Arial" fill="#d62728">red: SAP 24-2-like 54</text>
<text x="228" y="453" font-size="12" font-family="Arial" fill="#1f77b4">blue: current 28</text>
<text x="368" y="453" font-size="12" font-family="Arial" fill="#ff7f0e">orange: nasal extension</text>
<text x="735.0" y="24" text-anchor="middle" font-size="18" font-family="Arial">Right eye target locations</text>
<rect x="548" y="48" width="374" height="374" fill="white" stroke="#555"/>
<line x1="548.0" y1="422.0" x2="922.0" y2="422.0" stroke="#d9d9d9" stroke-width="1"/>
<line x1="548.0" y1="422.0" x2="548.0" y2="48.0" stroke="#d9d9d9" stroke-width="1"/>
<line x1="548.0" y1="384.6" x2="922.0" y2="384.6" stroke="#d9d9d9" stroke-width="1"/>
<line x1="585.4" y1="422.0" x2="585.4" y2="48.0" stroke="#d9d9d9" stroke-width="1"/>
<line x1="548.0" y1="347.2" x2="922.0" y2="347.2" stroke="#d9d9d9" stroke-width="1"/>
<line x1="622.8" y1="422.0" x2="622.8" y2="48.0" stroke="#d9d9d9" stroke-width="1"/>
<line x1="548.0" y1="309.8" x2="922.0" y2="309.8" stroke="#d9d9d9" stroke-width="1"/>
<line x1="660.2" y1="422.0" x2="660.2" y2="48.0" stroke="#d9d9d9" stroke-width="1"/>
<line x1="548.0" y1="272.4" x2="922.0" y2="272.4" stroke="#d9d9d9" stroke-width="1"/>
<line x1="697.6" y1="422.0" x2="697.6" y2="48.0" stroke="#d9d9d9" stroke-width="1"/>
<line x1="548.0" y1="235.0" x2="922.0" y2="235.0" stroke="#111" stroke-width="1.6"/>
<line x1="735.0" y1="422.0" x2="735.0" y2="48.0" stroke="#111" stroke-width="1.6"/>
<line x1="548.0" y1="197.6" x2="922.0" y2="197.6" stroke="#d9d9d9" stroke-width="1"/>
<line x1="772.4" y1="422.0" x2="772.4" y2="48.0" stroke="#d9d9d9" stroke-width="1"/>
<line x1="548.0" y1="160.2" x2="922.0" y2="160.2" stroke="#d9d9d9" stroke-width="1"/>
<line x1="809.8" y1="422.0" x2="809.8" y2="48.0" stroke="#d9d9d9" stroke-width="1"/>
<line x1="548.0" y1="122.8" x2="922.0" y2="122.8" stroke="#d9d9d9" stroke-width="1"/>
<line x1="847.2" y1="422.0" x2="847.2" y2="48.0" stroke="#d9d9d9" stroke-width="1"/>
<line x1="548.0" y1="85.4" x2="922.0" y2="85.4" stroke="#d9d9d9" stroke-width="1"/>
<line x1="884.6" y1="422.0" x2="884.6" y2="48.0" stroke="#d9d9d9" stroke-width="1"/>
<line x1="548.0" y1="48.0" x2="922.0" y2="48.0" stroke="#d9d9d9" stroke-width="1"/>
<line x1="922.0" y1="422.0" x2="922.0" y2="48.0" stroke="#d9d9d9" stroke-width="1"/>
<circle cx="678.9" cy="104.1" r="5.2" fill="white" stroke="#d62728" stroke-width="2"/>
<circle cx="716.3" cy="104.1" r="5.2" fill="white" stroke="#d62728" stroke-width="2"/>
<circle cx="753.7" cy="104.1" r="5.2" fill="white" stroke="#d62728" stroke-width="2"/>
<circle cx="791.1" cy="104.1" r="5.2" fill="white" stroke="#d62728" stroke-width="2"/>
<circle cx="641.5" cy="141.5" r="5.2" fill="white" stroke="#d62728" stroke-width="2"/>
<circle cx="678.9" cy="141.5" r="5.2" fill="white" stroke="#d62728" stroke-width="2"/>
<circle cx="716.3" cy="141.5" r="5.2" fill="white" stroke="#d62728" stroke-width="2"/>
<circle cx="753.7" cy="141.5" r="5.2" fill="white" stroke="#d62728" stroke-width="2"/>
<circle cx="791.1" cy="141.5" r="5.2" fill="white" stroke="#d62728" stroke-width="2"/>
<circle cx="828.5" cy="141.5" r="5.2" fill="white" stroke="#d62728" stroke-width="2"/>
<circle cx="604.1" cy="178.9" r="5.2" fill="white" stroke="#d62728" stroke-width="2"/>
<circle cx="641.5" cy="178.9" r="5.2" fill="white" stroke="#d62728" stroke-width="2"/>
<circle cx="678.9" cy="178.9" r="5.2" fill="white" stroke="#d62728" stroke-width="2"/>
<circle cx="716.3" cy="178.9" r="5.2" fill="white" stroke="#d62728" stroke-width="2"/>
<circle cx="753.7" cy="178.9" r="5.2" fill="white" stroke="#d62728" stroke-width="2"/>
<circle cx="791.1" cy="178.9" r="5.2" fill="white" stroke="#d62728" stroke-width="2"/>
<circle cx="828.5" cy="178.9" r="5.2" fill="white" stroke="#d62728" stroke-width="2"/>
<circle cx="865.9" cy="178.9" r="5.2" fill="white" stroke="#d62728" stroke-width="2"/>
<circle cx="566.7" cy="216.3" r="6.0" fill="white" stroke="#ff7f0e" stroke-width="2"/>
<circle cx="604.1" cy="216.3" r="5.2" fill="white" stroke="#d62728" stroke-width="2"/>
<circle cx="641.5" cy="216.3" r="5.2" fill="white" stroke="#d62728" stroke-width="2"/>
<circle cx="678.9" cy="216.3" r="5.2" fill="white" stroke="#d62728" stroke-width="2"/>
<circle cx="716.3" cy="216.3" r="5.2" fill="white" stroke="#d62728" stroke-width="2"/>
<circle cx="753.7" cy="216.3" r="5.2" fill="white" stroke="#d62728" stroke-width="2"/>
<circle cx="791.1" cy="216.3" r="5.2" fill="white" stroke="#d62728" stroke-width="2"/>
<circle cx="828.5" cy="216.3" r="5.2" fill="white" stroke="#d62728" stroke-width="2"/>
<circle cx="865.9" cy="216.3" r="5.2" fill="white" stroke="#d62728" stroke-width="2"/>
<circle cx="566.7" cy="253.7" r="6.0" fill="white" stroke="#ff7f0e" stroke-width="2"/>
<circle cx="604.1" cy="253.7" r="5.2" fill="white" stroke="#d62728" stroke-width="2"/>
<circle cx="641.5" cy="253.7" r="5.2" fill="white" stroke="#d62728" stroke-width="2"/>
<circle cx="678.9" cy="253.7" r="5.2" fill="white" stroke="#d62728" stroke-width="2"/>
<circle cx="716.3" cy="253.7" r="5.2" fill="white" stroke="#d62728" stroke-width="2"/>
<circle cx="753.7" cy="253.7" r="5.2" fill="white" stroke="#d62728" stroke-width="2"/>
<circle cx="791.1" cy="253.7" r="5.2" fill="white" stroke="#d62728" stroke-width="2"/>
<circle cx="828.5" cy="253.7" r="5.2" fill="white" stroke="#d62728" stroke-width="2"/>
<circle cx="865.9" cy="253.7" r="5.2" fill="white" stroke="#d62728" stroke-width="2"/>
<circle cx="604.1" cy="291.1" r="5.2" fill="white" stroke="#d62728" stroke-width="2"/>
<circle cx="641.5" cy="291.1" r="5.2" fill="white" stroke="#d62728" stroke-width="2"/>
<circle cx="678.9" cy="291.1" r="5.2" fill="white" stroke="#d62728" stroke-width="2"/>
<circle cx="716.3" cy="291.1" r="5.2" fill="white" stroke="#d62728" stroke-width="2"/>
<circle cx="753.7" cy="291.1" r="5.2" fill="white" stroke="#d62728" stroke-width="2"/>
<circle cx="791.1" cy="291.1" r="5.2" fill="white" stroke="#d62728" stroke-width="2"/>
<circle cx="828.5" cy="291.1" r="5.2" fill="white" stroke="#d62728" stroke-width="2"/>
<circle cx="865.9" cy="291.1" r="5.2" fill="white" stroke="#d62728" stroke-width="2"/>
<circle cx="641.5" cy="328.5" r="5.2" fill="white" stroke="#d62728" stroke-width="2"/>
<circle cx="678.9" cy="328.5" r="5.2" fill="white" stroke="#d62728" stroke-width="2"/>
<circle cx="716.3" cy="328.5" r="5.2" fill="white" stroke="#d62728" stroke-width="2"/>
<circle cx="753.7" cy="328.5" r="5.2" fill="white" stroke="#d62728" stroke-width="2"/>
<circle cx="791.1" cy="328.5" r="5.2" fill="white" stroke="#d62728" stroke-width="2"/>
<circle cx="828.5" cy="328.5" r="5.2" fill="white" stroke="#d62728" stroke-width="2"/>
<circle cx="678.9" cy="365.9" r="5.2" fill="white" stroke="#d62728" stroke-width="2"/>
<circle cx="716.3" cy="365.9" r="5.2" fill="white" stroke="#d62728" stroke-width="2"/>
<circle cx="753.7" cy="365.9" r="5.2" fill="white" stroke="#d62728" stroke-width="2"/>
<circle cx="791.1" cy="365.9" r="5.2" fill="white" stroke="#d62728" stroke-width="2"/>
<circle cx="759.9" cy="210.1" r="3.0" fill="#1f77b4" fill-opacity="0.75"/>
<circle cx="710.1" cy="210.1" r="3.0" fill="#1f77b4" fill-opacity="0.75"/>
<circle cx="710.1" cy="259.9" r="3.0" fill="#1f77b4" fill-opacity="0.75"/>
<circle cx="759.9" cy="259.9" r="3.0" fill="#1f77b4" fill-opacity="0.75"/>
<circle cx="791.1" cy="178.9" r="3.0" fill="#1f77b4" fill-opacity="0.75"/>
<circle cx="678.9" cy="178.9" r="3.0" fill="#1f77b4" fill-opacity="0.75"/>
<circle cx="678.9" cy="291.1" r="3.0" fill="#1f77b4" fill-opacity="0.75"/>
<circle cx="791.1" cy="291.1" r="3.0" fill="#1f77b4" fill-opacity="0.75"/>
<circle cx="756.3" cy="118.8" r="3.0" fill="#1f77b4" fill-opacity="0.75"/>
<circle cx="713.7" cy="118.8" r="3.0" fill="#1f77b4" fill-opacity="0.75"/>
<circle cx="713.7" cy="351.2" r="3.0" fill="#1f77b4" fill-opacity="0.75"/>
<circle cx="756.3" cy="351.2" r="3.0" fill="#1f77b4" fill-opacity="0.75"/>
<circle cx="851.2" cy="213.7" r="3.0" fill="#1f77b4" fill-opacity="0.75"/>
<circle cx="618.8" cy="213.7" r="3.0" fill="#1f77b4" fill-opacity="0.75"/>
<circle cx="618.8" cy="256.3" r="3.0" fill="#1f77b4" fill-opacity="0.75"/>
<circle cx="851.2" cy="256.3" r="3.0" fill="#1f77b4" fill-opacity="0.75"/>
<circle cx="853.4" cy="116.6" r="3.0" fill="#1f77b4" fill-opacity="0.75"/>
<circle cx="616.6" cy="116.6" r="3.0" fill="#1f77b4" fill-opacity="0.75"/>
<circle cx="616.6" cy="353.4" r="3.0" fill="#1f77b4" fill-opacity="0.75"/>
<circle cx="853.4" cy="353.4" r="3.0" fill="#1f77b4" fill-opacity="0.75"/>
<circle cx="792.8" cy="85.4" r="3.0" fill="#1f77b4" fill-opacity="0.75"/>
<circle cx="677.2" cy="85.4" r="3.0" fill="#1f77b4" fill-opacity="0.75"/>
<circle cx="677.2" cy="384.6" r="3.0" fill="#1f77b4" fill-opacity="0.75"/>
<circle cx="792.8" cy="384.6" r="3.0" fill="#1f77b4" fill-opacity="0.75"/>
<circle cx="884.6" cy="177.2" r="3.0" fill="#1f77b4" fill-opacity="0.75"/>
<circle cx="585.4" cy="177.2" r="3.0" fill="#1f77b4" fill-opacity="0.75"/>
<circle cx="585.4" cy="292.8" r="3.0" fill="#1f77b4" fill-opacity="0.75"/>
<circle cx="884.6" cy="292.8" r="3.0" fill="#1f77b4" fill-opacity="0.75"/>
<text x="548" y="453" font-size="12" font-family="Arial" fill="#d62728">red: SAP 24-2-like 54</text>
<text x="718" y="453" font-size="12" font-family="Arial" fill="#1f77b4">blue: current 28</text>
<text x="858" y="453" font-size="12" font-family="Arial" fill="#ff7f0e">orange: nasal extension</text>
</svg>